# xmcd
#
# Track frame offsets:
#	150
#	16477
#	30311
#	48546
#	66135
#	83626
#	96858
#	112094
#	126833
#	140212
#	156966
#	169526
#	187328
#	201597
#
# Disc length: 2848 seconds
# Revision: 0
# Processed by: cddbd v1.5.2PL0 Copyright (c) Steve Scherf et al.
# Submitted via: dBpowerAMP V12.0
#
DISCID=cc0b1e0e
DTITLE=The Red Hot Rhythm Rustlers - Too Hot To Handle
DYEAR=2014
DGENRE=Country
TTITLE0=Don Edwards for President
TTITLE1=This Godforsaken Town
TTITLE2=Keep a Candle in the Window
TTITLE3=Shoulda Grabbed Her a Cowboy
TTITLE4=Carry Me Back to the Lone Prairie
TTITLE5=Lone Pine
TTITLE6=Never Ride a Train
TTITLE7=Cow Cow Boogie
TTITLE8=My Window Faces the South
TTITLE9=The TV Cowboys
TTITLE10=That's Why I Love Arizona
TTITLE11=There's a Grave Out Back
TTITLE12=Punehin' Cows, Settin' Posts, Stretchin' Wire
TTITLE13=Desperado
EXTD=
EXTT0=
EXTT1=
EXTT2=
EXTT3=
EXTT4=
EXTT5=
EXTT6=
EXTT7=
EXTT8=
EXTT9=
EXTT10=
EXTT11=
EXTT12=
EXTT13=
PLAYORDER=
